<svg xmlns="http://www.w3.org/2000/svg" xmlns:xlink="http://www.w3.org/1999/xlink" width="180" zoomAndPan="magnify" viewBox="0 0 135 67.499998" height="90" preserveAspectRatio="xMidYMid meet" version="1.0"><defs><g/><clipPath id="c837c30585"><path d="M 10 16 L 134 16 L 134 67.003906 L 10 67.003906 Z M 10 16 " clip-rule="nonzero"/></clipPath><clipPath id="2d83ee47e9"><path d="M 104 9 L 113 9 L 113 19 L 104 19 Z M 104 9 " clip-rule="nonzero"/></clipPath><clipPath id="92533947f4"><path d="M 92.273438 -2.4375 L 130.007812 6.652344 L 120.097656 47.816406 L 82.359375 38.730469 Z M 92.273438 -2.4375 " clip-rule="nonzero"/></clipPath><clipPath id="b6dbe504f9"><path d="M 92.273438 -2.4375 L 130.007812 6.652344 L 120.097656 47.816406 L 82.359375 38.730469 Z M 92.273438 -2.4375 " clip-rule="nonzero"/></clipPath><clipPath id="112554c3b3"><path d="M 102 0 L 104 0 L 104 9 L 102 9 Z M 102 0 " clip-rule="nonzero"/></clipPath><clipPath id="25420f1e21"><path d="M 92.273438 -2.4375 L 130.007812 6.652344 L 120.097656 47.816406 L 82.359375 38.730469 Z M 92.273438 -2.4375 " clip-rule="nonzero"/></clipPath><clipPath id="d58bfb35fc"><path d="M 92.273438 -2.4375 L 130.007812 6.652344 L 120.097656 47.816406 L 82.359375 38.730469 Z M 92.273438 -2.4375 " clip-rule="nonzero"/></clipPath><clipPath id="eaf66ec1db"><path d="M 102 7 L 107 7 L 107 12 L 102 12 Z M 102 7 " clip-rule="nonzero"/></clipPath><clipPath id="cf54000939"><path d="M 92.273438 -2.4375 L 130.007812 6.652344 L 120.097656 47.816406 L 82.359375 38.730469 Z M 92.273438 -2.4375 " clip-rule="nonzero"/></clipPath><clipPath id="061ff1d912"><path d="M 92.273438 -2.4375 L 130.007812 6.652344 L 120.097656 47.816406 L 82.359375 38.730469 Z M 92.273438 -2.4375 " clip-rule="nonzero"/></clipPath><clipPath id="18e879f001"><path d="M 85 15 L 94 15 L 94 25 L 85 25 Z M 85 15 " clip-rule="nonzero"/></clipPath><clipPath id="8d68f3d11f"><path d="M 92.273438 -2.4375 L 130.007812 6.652344 L 120.097656 47.816406 L 82.359375 38.730469 Z M 92.273438 -2.4375 " clip-rule="nonzero"/></clipPath><clipPath id="336935e786"><path d="M 92.273438 -2.4375 L 130.007812 6.652344 L 120.097656 47.816406 L 82.359375 38.730469 Z M 92.273438 -2.4375 " clip-rule="nonzero"/></clipPath><clipPath id="e94fdf4669"><path d="M 92 16 L 100 16 L 100 18 L 92 18 Z M 92 16 " clip-rule="nonzero"/></clipPath><clipPath id="fe8ca6d227"><path d="M 92.273438 -2.4375 L 130.007812 6.652344 L 120.097656 47.816406 L 82.359375 38.730469 Z M 92.273438 -2.4375 " clip-rule="nonzero"/></clipPath><clipPath id="e632ab8855"><path d="M 92.273438 -2.4375 L 130.007812 6.652344 L 120.097656 47.816406 L 82.359375 38.730469 Z M 92.273438 -2.4375 " clip-rule="nonzero"/></clipPath><clipPath id="3a821f38eb"><path d="M 84 24 L 91 24 L 91 35 L 84 35 Z M 84 24 " clip-rule="nonzero"/></clipPath><clipPath id="ae4daaf503"><path d="M 92.273438 -2.4375 L 130.007812 6.652344 L 120.097656 47.816406 L 82.359375 38.730469 Z M 92.273438 -2.4375 " clip-rule="nonzero"/></clipPath><clipPath id="3ca8684dc1"><path d="M 92.273438 -2.4375 L 130.007812 6.652344 L 120.097656 47.816406 L 82.359375 38.730469 Z M 92.273438 -2.4375 " clip-rule="nonzero"/></clipPath><clipPath id="24fb933acd"><path d="M 89 23 L 97 23 L 97 26 L 89 26 Z M 89 23 " clip-rule="nonzero"/></clipPath><clipPath id="7980e820f3"><path d="M 92.273438 -2.4375 L 130.007812 6.652344 L 120.097656 47.816406 L 82.359375 38.730469 Z M 92.273438 -2.4375 " clip-rule="nonzero"/></clipPath><clipPath id="737b6d09d6"><path d="M 92.273438 -2.4375 L 130.007812 6.652344 L 120.097656 47.816406 L 82.359375 38.730469 Z M 92.273438 -2.4375 " clip-rule="nonzero"/></clipPath><clipPath id="fc38ede395"><path d="M 86 30 L 94 30 L 94 40 L 86 40 Z M 86 30 " clip-rule="nonzero"/></clipPath><clipPath id="24ab5e7e38"><path d="M 92.273438 -2.4375 L 130.007812 6.652344 L 120.097656 47.816406 L 82.359375 38.730469 Z M 92.273438 -2.4375 " clip-rule="nonzero"/></clipPath><clipPath id="ff2f69ce43"><path d="M 92.273438 -2.4375 L 130.007812 6.652344 L 120.097656 47.816406 L 82.359375 38.730469 Z M 92.273438 -2.4375 " clip-rule="nonzero"/></clipPath><clipPath id="63261c6570"><path d="M 91 29 L 99 29 L 99 32 L 91 32 Z M 91 29 " clip-rule="nonzero"/></clipPath><clipPath id="31b01b90d2"><path d="M 92.273438 -2.4375 L 130.007812 6.652344 L 120.097656 47.816406 L 82.359375 38.730469 Z M 92.273438 -2.4375 " clip-rule="nonzero"/></clipPath><clipPath id="4c32812a22"><path d="M 92.273438 -2.4375 L 130.007812 6.652344 L 120.097656 47.816406 L 82.359375 38.730469 Z M 92.273438 -2.4375 " clip-rule="nonzero"/></clipPath><clipPath id="0324c30fb8"><path d="M 119 22 L 124 22 L 124 34 L 119 34 Z M 119 22 " clip-rule="nonzero"/></clipPath><clipPath id="061deae385"><path d="M 92.273438 -2.4375 L 130.007812 6.652344 L 120.097656 47.816406 L 82.359375 38.730469 Z M 92.273438 -2.4375 " clip-rule="nonzero"/></clipPath><clipPath id="75176ecaaa"><path d="M 92.273438 -2.4375 L 130.007812 6.652344 L 120.097656 47.816406 L 82.359375 38.730469 Z M 92.273438 -2.4375 " clip-rule="nonzero"/></clipPath><clipPath id="cb41a84aa7"><path d="M 114 20 L 121 20 L 121 24 L 114 24 Z M 114 20 " clip-rule="nonzero"/></clipPath><clipPath id="70a1d9fd60"><path d="M 92.273438 -2.4375 L 130.007812 6.652344 L 120.097656 47.816406 L 82.359375 38.730469 Z M 92.273438 -2.4375 " clip-rule="nonzero"/></clipPath><clipPath id="835e6e7bb6"><path d="M 92.273438 -2.4375 L 130.007812 6.652344 L 120.097656 47.816406 L 82.359375 38.730469 Z M 92.273438 -2.4375 " clip-rule="nonzero"/></clipPath><clipPath id="8541f90fa8"><path d="M 118 31 L 121 31 L 121 43 L 118 43 Z M 118 31 " clip-rule="nonzero"/></clipPath><clipPath id="b2494280d3"><path d="M 92.273438 -2.4375 L 130.007812 6.652344 L 120.097656 47.816406 L 82.359375 38.730469 Z M 92.273438 -2.4375 " clip-rule="nonzero"/></clipPath><clipPath id="bc9601c49f"><path d="M 92.273438 -2.4375 L 130.007812 6.652344 L 120.097656 47.816406 L 82.359375 38.730469 Z M 92.273438 -2.4375 " clip-rule="nonzero"/></clipPath><clipPath id="96e0c826f7"><path d="M 114 27 L 121 27 L 121 33 L 114 33 Z M 114 27 " clip-rule="nonzero"/></clipPath><clipPath id="6b5546eb9c"><path d="M 92.273438 -2.4375 L 130.007812 6.652344 L 120.097656 47.816406 L 82.359375 38.730469 Z M 92.273438 -2.4375 " clip-rule="nonzero"/></clipPath><clipPath id="34d4a0029f"><path d="M 92.273438 -2.4375 L 130.007812 6.652344 L 120.097656 47.816406 L 82.359375 38.730469 Z M 92.273438 -2.4375 " clip-rule="nonzero"/></clipPath><clipPath id="b8c937a6c1"><path d="M 113 35 L 116 35 L 116 47 L 113 47 Z M 113 35 " clip-rule="nonzero"/></clipPath><clipPath id="f9d1a708a8"><path d="M 92.273438 -2.4375 L 130.007812 6.652344 L 120.097656 47.816406 L 82.359375 38.730469 Z M 92.273438 -2.4375 " clip-rule="nonzero"/></clipPath><clipPath id="4e0ad5ef6d"><path d="M 92.273438 -2.4375 L 130.007812 6.652344 L 120.097656 47.816406 L 82.359375 38.730469 Z M 92.273438 -2.4375 " clip-rule="nonzero"/></clipPath><clipPath id="0b1817c684"><path d="M 109 31 L 116 31 L 116 37 L 109 37 Z M 109 31 " clip-rule="nonzero"/></clipPath><clipPath id="e7eadf48da"><path d="M 92.273438 -2.4375 L 130.007812 6.652344 L 120.097656 47.816406 L 82.359375 38.730469 Z M 92.273438 -2.4375 " clip-rule="nonzero"/></clipPath><clipPath id="53740632f8"><path d="M 92.273438 -2.4375 L 130.007812 6.652344 L 120.097656 47.816406 L 82.359375 38.730469 Z M 92.273438 -2.4375 " clip-rule="nonzero"/></clipPath><clipPath id="a63b58d27d"><path d="M 115 4 L 121 4 L 121 12 L 115 12 Z M 115 4 " clip-rule="nonzero"/></clipPath><clipPath id="0becfe82e7"><path d="M 92.273438 -2.4375 L 130.007812 6.652344 L 120.097656 47.816406 L 82.359375 38.730469 Z M 92.273438 -2.4375 " clip-rule="nonzero"/></clipPath><clipPath id="c01dd7f13a"><path d="M 92.273438 -2.4375 L 130.007812 6.652344 L 120.097656 47.816406 L 82.359375 38.730469 Z M 92.273438 -2.4375 " clip-rule="nonzero"/></clipPath><clipPath id="cfe5c85354"><path d="M 111 10 L 117 10 L 117 14 L 111 14 Z M 111 10 " clip-rule="nonzero"/></clipPath><clipPath id="620e1651a3"><path d="M 92.273438 -2.4375 L 130.007812 6.652344 L 120.097656 47.816406 L 82.359375 38.730469 Z M 92.273438 -2.4375 " clip-rule="nonzero"/></clipPath><clipPath id="591167bee9"><path d="M 92.273438 -2.4375 L 130.007812 6.652344 L 120.097656 47.816406 L 82.359375 38.730469 Z M 92.273438 -2.4375 " clip-rule="nonzero"/></clipPath><clipPath id="c81f656a0d"><path d="M 95 14 L 117 14 L 117 35 L 95 35 Z M 95 14 " clip-rule="nonzero"/></clipPath><clipPath id="38436bf6d9"><path d="M 92.273438 -2.4375 L 130.007812 6.652344 L 120.097656 47.816406 L 82.359375 38.730469 Z M 92.273438 -2.4375 " clip-rule="nonzero"/></clipPath><clipPath id="bc4021f096"><path d="M 92.273438 -2.4375 L 130.007812 6.652344 L 120.097656 47.816406 L 82.359375 38.730469 Z M 92.273438 -2.4375 " clip-rule="nonzero"/></clipPath><clipPath id="b16c4d733d"><path d="M 100 19 L 111 19 L 111 30 L 100 30 Z M 100 19 " clip-rule="nonzero"/></clipPath><clipPath id="509aa30261"><path d="M 92.273438 -2.4375 L 130.007812 6.652344 L 120.097656 47.816406 L 82.359375 38.730469 Z M 92.273438 -2.4375 " clip-rule="nonzero"/></clipPath><clipPath id="56a22bda3d"><path d="M 92.273438 -2.4375 L 130.007812 6.652344 L 120.097656 47.816406 L 82.359375 38.730469 Z M 92.273438 -2.4375 " clip-rule="nonzero"/></clipPath><clipPath id="177bc36311"><path d="M 100 19 L 112 19 L 112 30 L 100 30 Z M 100 19 " clip-rule="nonzero"/></clipPath><clipPath id="475d4b92b4"><path d="M 92.273438 -2.4375 L 130.007812 6.652344 L 120.097656 47.816406 L 82.359375 38.730469 Z M 92.273438 -2.4375 " clip-rule="nonzero"/></clipPath><clipPath id="62270f0983"><path d="M 92.273438 -2.4375 L 130.007812 6.652344 L 120.097656 47.816406 L 82.359375 38.730469 Z M 92.273438 -2.4375 " clip-rule="nonzero"/></clipPath><clipPath id="56adb5595c"><path d="M 106 13 L 110 13 L 110 21 L 106 21 Z M 106 13 " clip-rule="nonzero"/></clipPath><clipPath id="57da2b146c"><path d="M 92.273438 -2.4375 L 130.007812 6.652344 L 120.097656 47.816406 L 82.359375 38.730469 Z M 92.273438 -2.4375 " clip-rule="nonzero"/></clipPath><clipPath id="87ecb77013"><path d="M 92.273438 -2.4375 L 130.007812 6.652344 L 120.097656 47.816406 L 82.359375 38.730469 Z M 92.273438 -2.4375 " clip-rule="nonzero"/></clipPath><clipPath id="8226f8ac0c"><path d="M 102 28 L 106 28 L 106 36 L 102 36 Z M 102 28 " clip-rule="nonzero"/></clipPath><clipPath id="2a10e06078"><path d="M 92.273438 -2.4375 L 130.007812 6.652344 L 120.097656 47.816406 L 82.359375 38.730469 Z M 92.273438 -2.4375 " clip-rule="nonzero"/></clipPath><clipPath id="195f73b37d"><path d="M 92.273438 -2.4375 L 130.007812 6.652344 L 120.097656 47.816406 L 82.359375 38.730469 Z M 92.273438 -2.4375 " clip-rule="nonzero"/></clipPath><clipPath id="9083139ca8"><path d="M 94 21 L 117 21 L 117 29 L 94 29 Z M 94 21 " clip-rule="nonzero"/></clipPath><clipPath id="7031506236"><path d="M 92.273438 -2.4375 L 130.007812 6.652344 L 120.097656 47.816406 L 82.359375 38.730469 Z M 92.273438 -2.4375 " clip-rule="nonzero"/></clipPath><clipPath id="2570fd6adb"><path d="M 92.273438 -2.4375 L 130.007812 6.652344 L 120.097656 47.816406 L 82.359375 38.730469 Z M 92.273438 -2.4375 " clip-rule="nonzero"/></clipPath><clipPath id="e4b097f414"><path d="M 103 16 L 134 16 L 134 67.003906 L 103 67.003906 Z M 103 16 " clip-rule="nonzero"/></clipPath></defs><g fill="#9d3be1" fill-opacity="1"><g transform="translate(11.180183, 65.556982)"><g><path d="M 15.011719 -9.738281 C 15.433594 -9.738281 16.316406 -9.738281 16.613281 -11.214844 L 21.546875 -34.53125 C 21.546875 -35.039062 21.292969 -35.332031 20.914062 -35.332031 L 19.859375 -35.332031 C 19.4375 -35.332031 18.972656 -34.953125 18.890625 -34.53125 L 14.125 -12.226562 L 8.179688 -12.226562 L 12.945312 -34.617188 C 12.945312 -35.121094 12.691406 -35.417969 12.3125 -35.417969 L 11.257812 -35.417969 C 10.792969 -35.417969 10.371094 -35.039062 10.289062 -34.617188 C 5.269531 -11.003906 5.269531 -10.835938 5.269531 -10.667969 C 5.269531 -9.738281 5.945312 -9.738281 6.324219 -9.738281 L 9.402344 -9.738281 C 7.503906 -0.714844 7.464844 -0.632812 7.464844 -0.589844 C 7.464844 -0.253906 7.757812 0 8.136719 0 L 9.191406 0 C 9.613281 0 10.035156 -0.378906 10.160156 -0.800781 L 12.058594 -9.738281 Z M 15.011719 -9.738281 "/></g></g></g><g fill="#9d3be1" fill-opacity="1"><g transform="translate(30.490955, 65.556982)"><g><path d="M 11.761719 -35.417969 C 11.300781 -35.417969 10.457031 -35.417969 10.160156 -33.941406 C 3.121094 -0.714844 3.078125 -0.632812 3.078125 -0.589844 C 3.078125 -0.253906 3.375 0 3.753906 0 L 4.804688 0 C 5.226562 0 5.648438 -0.378906 5.777344 -0.800781 L 8.515625 -13.703125 L 14.460938 -13.703125 C 11.722656 -0.757812 11.679688 -0.675781 11.679688 -0.632812 C 11.679688 -0.296875 11.972656 0 12.355469 0 L 13.40625 0 C 13.828125 0 14.25 -0.378906 14.378906 -0.800781 C 21.546875 -34.152344 21.546875 -34.320312 21.546875 -34.488281 C 21.546875 -35.417969 20.871094 -35.417969 20.492188 -35.417969 Z M 12.605469 -32.929688 L 18.550781 -32.929688 L 14.96875 -16.148438 L 9.023438 -16.148438 Z M 12.605469 -32.929688 "/></g></g></g><g fill="#9d3be1" fill-opacity="1"><g transform="translate(49.843886, 65.556982)"><g><path d="M 3.332031 -1.898438 C 3.121094 -1.558594 3.078125 -1.390625 3.078125 -0.589844 C 3.078125 -0.253906 3.289062 0 3.710938 0 L 13.40625 0 C 13.828125 0 14.25 -0.378906 14.378906 -0.800781 L 14.546875 -1.6875 C 14.546875 -2.191406 14.292969 -2.488281 13.914062 -2.488281 L 6.199219 -2.488281 L 21.757812 -33.476562 L 22.007812 -34.617188 C 22.007812 -35.121094 21.757812 -35.417969 21.335938 -35.417969 L 11.679688 -35.417969 C 11.257812 -35.417969 10.792969 -35.039062 10.710938 -34.617188 C 10.539062 -33.644531 10.5 -33.5625 10.5 -33.519531 C 10.5 -33.140625 10.792969 -32.929688 11.171875 -32.929688 L 18.929688 -32.929688 Z M 3.332031 -1.898438 "/></g></g></g><g fill="#9d3be1" fill-opacity="1"><g transform="translate(69.57629, 65.556982)"><g><path d="M 12.902344 0 C 13.238281 0 14.25 0 14.546875 -1.476562 L 17.667969 -16.527344 C 17.667969 -16.90625 17.414062 -17.203125 17.035156 -17.203125 L 15.980469 -17.203125 C 15.558594 -17.203125 15.09375 -16.824219 15.011719 -16.359375 L 12.058594 -2.488281 L 6.113281 -2.488281 L 12.605469 -32.929688 L 20.492188 -32.929688 C 20.914062 -32.929688 21.335938 -33.265625 21.460938 -33.730469 L 21.628906 -34.617188 C 21.628906 -35.121094 21.375 -35.417969 20.996094 -35.417969 L 11.804688 -35.417969 C 11.46875 -35.417969 10.457031 -35.417969 10.160156 -33.941406 C 3.203125 -1.308594 3.203125 -1.097656 3.203125 -0.96875 C 3.203125 0 4.003906 0 4.300781 0 Z M 12.902344 0 "/></g></g></g><g fill="#9d3be1" fill-opacity="1"><g transform="translate(88.929222, 65.556982)"><g><path d="M 9.234375 -17.117188 L 13.578125 -17.117188 C 14.039062 -17.117188 14.417969 -17.457031 14.546875 -17.917969 L 14.757812 -18.890625 C 14.757812 -19.4375 14.546875 -19.734375 14.125 -19.734375 L 9.78125 -19.734375 L 12.605469 -32.929688 L 19.015625 -32.929688 C 19.480469 -32.929688 19.859375 -33.265625 19.984375 -33.730469 L 20.152344 -34.617188 C 20.152344 -35.121094 19.941406 -35.417969 19.523438 -35.417969 L 11.257812 -35.417969 C 10.835938 -35.417969 10.371094 -35.039062 10.289062 -34.617188 C 3.121094 -0.757812 3.078125 -0.675781 3.078125 -0.632812 C 3.078125 -0.296875 3.375 0 3.753906 0 L 12.015625 0 C 12.480469 0 12.859375 -0.378906 12.984375 -0.800781 L 13.15625 -1.855469 C 13.15625 -2.234375 12.945312 -2.488281 12.523438 -2.488281 L 6.113281 -2.488281 Z M 9.234375 -17.117188 "/></g></g></g><g fill="#9d3be1" fill-opacity="1"><g transform="translate(106.806442, 65.556982)"><g><path d="M 11.46875 -40.308594 C 3.078125 -0.757812 3.035156 -0.675781 3.035156 -0.632812 C 3.035156 -0.296875 3.332031 0 3.710938 0 L 4.722656 0 C 5.1875 0 5.566406 -0.378906 5.691406 -0.800781 L 14.082031 -40.308594 L 22.429688 -40.308594 C 22.851562 -40.308594 23.316406 -40.6875 23.402344 -41.152344 C 23.570312 -42.078125 23.613281 -42.164062 23.613281 -42.207031 C 23.613281 -42.542969 23.316406 -42.839844 22.9375 -42.839844 L 3.625 -42.839844 C 3.203125 -42.839844 2.78125 -42.457031 2.65625 -42.035156 L 2.488281 -40.984375 C 2.488281 -40.601562 2.742188 -40.308594 3.121094 -40.308594 Z M 11.46875 -40.308594 "/></g></g></g><g clip-path="url(#c837c30585)"><path stroke-linecap="butt" transform="matrix(0.135717, 0, 0, 0.135717, 1.550409, 26.930339)" fill="none" stroke-linejoin="miter" d="M 171.919052 203.255358 C 175.027533 203.255358 181.561101 203.255358 183.748551 192.318108 L 220.100517 20.545714 C 220.100517 16.804023 218.20089 14.70292 215.466577 14.70292 L 207.666591 14.70292 C 204.529327 14.70292 201.133023 17.437232 200.528596 20.545714 L 165.414266 184.892291 L 121.636483 184.892291 L 156.693248 19.912505 C 156.693248 16.199596 154.851185 14.012146 152.059308 14.012146 L 144.316886 14.012146 C 140.920582 14.012146 137.783318 16.804023 137.121326 19.912505 C 100.164933 193.929913 100.164933 195.138767 100.164933 196.433968 C 100.164933 203.255358 105.173043 203.255358 107.907355 203.255358 L 130.587758 203.255358 C 116.628373 269.684763 116.340551 270.375536 116.340551 270.663359 C 116.340551 273.109849 118.528001 275.009477 121.34866 275.009477 L 129.0623 275.009477 C 132.170781 275.009477 135.308045 272.188817 136.200295 269.080336 L 150.15968 203.255358 Z M 290.329177 14.012146 C 286.904091 14.012146 280.687127 14.012146 278.499677 24.920614 C 226.605303 269.684763 226.317481 270.375536 226.317481 270.663359 C 226.317481 273.109849 228.504931 275.009477 231.32559 275.009477 L 239.03923 275.009477 C 242.147711 275.009477 245.256193 272.188817 246.177225 269.080336 L 266.353573 174.041387 L 310.188921 174.041387 C 290.012572 269.39694 289.72475 270.001367 289.72475 270.375536 C 289.72475 272.793244 291.854636 275.009477 294.646513 275.009477 L 302.446499 275.009477 C 305.497416 275.009477 308.605898 272.188817 309.584494 269.080336 C 362.371118 23.337591 362.371118 22.128737 362.371118 20.833536 C 362.371118 14.012146 357.449355 14.012146 354.628696 14.012146 Z M 296.54614 32.375214 L 340.295142 32.375214 L 313.90183 155.994924 L 270.152829 155.994924 Z M 370.804313 261.050091 C 369.22129 263.467799 368.904686 264.763 368.904686 270.663359 C 368.904686 273.109849 370.430144 275.009477 373.538626 275.009477 L 445.062486 275.009477 C 448.084621 275.009477 451.193103 272.188817 452.200481 269.080336 L 453.409335 262.546768 C 453.409335 258.833859 451.567272 256.646409 448.775395 256.646409 L 391.901694 256.646409 L 506.570128 28.3457 L 508.383409 19.912505 C 508.383409 16.199596 506.570128 14.012146 503.461646 14.012146 L 432.311955 14.012146 C 429.203473 14.012146 425.778387 16.804023 425.116396 19.912505 C 423.907542 27.0505 423.590937 27.741273 423.590937 28.029096 C 423.590937 30.849755 425.778387 32.375214 428.5127 32.375214 L 485.703006 32.375214 Z M 586.671095 275.009477 C 589.146368 275.009477 596.600967 275.009477 598.788417 264.158573 L 621.785425 153.203047 C 621.785425 150.468735 619.943362 148.252502 617.151485 148.252502 L 609.322716 148.252502 C 606.214235 148.252502 602.817931 151.073162 602.213504 154.469466 L 580.42535 256.646409 L 536.676349 256.646409 L 584.54121 32.375214 L 642.623765 32.375214 C 645.732247 32.375214 648.840728 29.871159 649.76176 26.446073 L 650.970614 19.912505 C 650.970614 16.199596 649.157333 14.012146 646.336674 14.012146 L 578.612069 14.012146 C 576.108014 14.012146 568.682197 14.012146 566.494747 24.920614 C 515.204799 265.367427 515.204799 266.95045 515.204799 267.871482 C 515.204799 275.009477 521.13394 275.009477 523.32139 275.009477 Z M 702.260561 148.856929 L 734.26641 148.856929 C 737.662714 148.856929 740.483373 146.352875 741.404405 142.956571 L 742.987428 135.818576 C 742.987428 131.789062 741.404405 129.601612 738.267141 129.601612 L 706.261292 129.601612 L 727.128415 32.375214 L 774.302502 32.375214 C 777.727588 32.375214 780.519465 29.871159 781.526844 26.446073 L 782.735698 19.912505 C 782.735698 16.199596 781.123892 14.012146 778.015411 14.012146 L 717.198543 14.012146 C 714.090061 14.012146 710.664975 16.804023 710.002983 19.912505 C 657.187577 269.39694 656.899755 270.001367 656.899755 270.375536 C 656.899755 272.793244 659.087205 275.009477 661.907864 275.009477 L 722.724732 275.009477 C 726.149819 275.009477 728.941696 272.188817 729.949074 269.080336 L 731.157928 261.337914 C 731.157928 258.546037 729.546123 256.646409 726.523988 256.646409 L 679.263554 256.646409 Z M 850.431521 -22.023215 C 788.607274 269.39694 788.319452 270.001367 788.319452 270.375536 C 788.319452 272.793244 790.506902 275.009477 793.241214 275.009477 L 800.753379 275.009477 C 804.178465 275.009477 806.970342 272.188817 807.891373 269.080336 L 869.686838 -22.023215 L 931.223262 -22.023215 C 934.331743 -22.023215 937.728047 -24.815092 938.332474 -28.240179 C 939.627675 -35.061569 939.944279 -35.665996 939.944279 -35.982601 C 939.944279 -38.486655 937.728047 -40.674105 934.93617 -40.674105 L 792.636788 -40.674105 C 789.528306 -40.674105 786.419824 -37.882228 785.498793 -34.773747 L 784.289939 -26.944978 C 784.289939 -24.153101 786.10322 -22.023215 788.923879 -22.023215 Z M 850.431521 -22.023215 " stroke="#000000" stroke-width="5.825062" stroke-opacity="1" stroke-miterlimit="4"/></g><g clip-path="url(#2d83ee47e9)"><g clip-path="url(#92533947f4)"><g clip-path="url(#b6dbe504f9)"><path stroke-linecap="round" transform="matrix(0.0678715, 0.016343, -0.0163303, 0.0678188, 92.271885, -2.435432)" fill-opacity="1" fill="#000000" fill-rule="nonzero" stroke-linejoin="round" d="M 246.472759 112.447775 L 313.746499 112.421218 C 316.799955 112.434172 319.680196 113.640835 321.805935 115.778097 C 323.931674 117.915359 325.141716 120.791673 325.183172 123.834396 L 325.12127 235.762953 L 234.81716 235.75235 L 234.826665 123.606027 C 234.812487 122.111886 235.150903 120.647973 235.746214 119.294949 C 236.328426 117.887482 237.235031 116.632237 238.31593 115.622982 C 239.38373 114.559285 240.680223 113.728469 242.10971 113.211195 C 243.471699 112.652588 244.966681 112.407522 246.472759 112.447775 Z M 246.472759 112.447775 " stroke="#263238" stroke-width="1.088" stroke-opacity="1" stroke-miterlimit="4"/></g></g></g><g clip-path="url(#112554c3b3)"><g clip-path="url(#25420f1e21)"><g clip-path="url(#d58bfb35fc)"><path fill="#000000" d="M 102.824219 8.660156 C 102.683594 8.625 102.5625 8.546875 102.476562 8.433594 C 102.386719 8.320312 102.34375 8.179688 102.347656 8.035156 L 102.546875 0.78125 C 102.558594 0.621094 102.632812 0.472656 102.75 0.367188 C 102.871094 0.257812 103.027344 0.203125 103.1875 0.207031 C 103.347656 0.210938 103.5 0.277344 103.613281 0.390625 C 103.726562 0.503906 103.792969 0.65625 103.796875 0.8125 L 103.597656 8.074219 C 103.589844 8.238281 103.519531 8.394531 103.398438 8.507812 C 103.28125 8.621094 103.117188 8.683594 102.953125 8.679688 C 102.910156 8.675781 102.867188 8.671875 102.824219 8.660156 Z M 102.824219 8.660156 " fill-opacity="1" fill-rule="nonzero"/></g></g></g><g clip-path="url(#eaf66ec1db)"><g clip-path="url(#cf54000939)"><g clip-path="url(#061ff1d912)"><path fill="#000000" d="M 106.3125 11.707031 C 106.257812 11.695312 106.207031 11.667969 106.164062 11.628906 L 102.75 8.277344 C 102.691406 8.21875 102.660156 8.140625 102.660156 8.054688 C 102.660156 7.972656 102.691406 7.894531 102.75 7.835938 C 102.808594 7.777344 102.886719 7.742188 102.96875 7.742188 C 103.054688 7.742188 103.132812 7.773438 103.191406 7.832031 L 106.601562 11.183594 C 106.65625 11.242188 106.6875 11.316406 106.691406 11.398438 C 106.691406 11.480469 106.660156 11.558594 106.605469 11.617188 C 106.570312 11.65625 106.523438 11.683594 106.46875 11.703125 C 106.417969 11.71875 106.363281 11.71875 106.3125 11.707031 Z M 106.3125 11.707031 " fill-opacity="1" fill-rule="nonzero"/></g></g></g><g clip-path="url(#18e879f001)"><g clip-path="url(#8d68f3d11f)"><g clip-path="url(#336935e786)"><path fill="#000000" d="M 93.417969 16.097656 C 93.257812 16.003906 93.070312 15.972656 92.886719 16 C 92.703125 16.03125 92.535156 16.125 92.414062 16.261719 L 86.171875 23.296875 C 86.101562 23.378906 86.046875 23.46875 86.015625 23.570312 C 85.980469 23.671875 85.964844 23.777344 85.96875 23.882812 C 85.976562 23.988281 86.003906 24.089844 86.050781 24.1875 C 86.097656 24.28125 86.160156 24.367188 86.242188 24.4375 C 86.320312 24.507812 86.414062 24.5625 86.511719 24.597656 C 86.613281 24.632812 86.71875 24.648438 86.824219 24.640625 C 86.929688 24.636719 87.035156 24.609375 87.128906 24.5625 C 87.226562 24.515625 87.308594 24.449219 87.382812 24.371094 L 93.625 17.335938 C 93.695312 17.257812 93.75 17.164062 93.785156 17.0625 C 93.820312 16.964844 93.832031 16.855469 93.824219 16.75 C 93.820312 16.644531 93.792969 16.542969 93.746094 16.445312 C 93.699219 16.351562 93.632812 16.265625 93.554688 16.195312 C 93.511719 16.15625 93.46875 16.121094 93.417969 16.097656 Z M 93.417969 16.097656 " fill-opacity="1" fill-rule="nonzero"/></g></g></g><g clip-path="url(#e94fdf4669)"><g clip-path="url(#fe8ca6d227)"><g clip-path="url(#e632ab8855)"><path fill="#000000" d="M 99.414062 16.300781 C 99.351562 16.265625 99.277344 16.25 99.207031 16.25 L 93.007812 16.390625 C 92.945312 16.375 92.878906 16.375 92.816406 16.390625 C 92.753906 16.402344 92.695312 16.429688 92.644531 16.472656 C 92.59375 16.511719 92.550781 16.5625 92.523438 16.621094 C 92.496094 16.683594 92.484375 16.746094 92.484375 16.8125 C 92.488281 16.875 92.503906 16.9375 92.535156 16.996094 C 92.566406 17.054688 92.609375 17.101562 92.660156 17.140625 C 92.714844 17.179688 92.773438 17.203125 92.839844 17.214844 C 92.902344 17.226562 92.96875 17.21875 93.03125 17.203125 L 99.222656 17.058594 C 99.304688 17.046875 99.382812 17.011719 99.445312 16.953125 C 99.507812 16.898438 99.554688 16.824219 99.574219 16.742188 C 99.59375 16.660156 99.585938 16.574219 99.558594 16.496094 C 99.527344 16.414062 99.476562 16.347656 99.40625 16.300781 Z M 99.414062 16.300781 " fill-opacity="1" fill-rule="nonzero"/></g></g></g><g clip-path="url(#3a821f38eb)"><g clip-path="url(#ae4daaf503)"><g clip-path="url(#3ca8684dc1)"><path fill="#000000" d="M 90.023438 24.320312 C 89.84375 24.261719 89.652344 24.269531 89.476562 24.335938 C 89.300781 24.40625 89.15625 24.535156 89.066406 24.699219 L 84.53125 32.941406 C 84.480469 33.035156 84.449219 33.136719 84.4375 33.242188 C 84.425781 33.347656 84.433594 33.453125 84.464844 33.554688 C 84.496094 33.65625 84.542969 33.753906 84.609375 33.835938 C 84.675781 33.917969 84.757812 33.984375 84.851562 34.035156 C 84.945312 34.085938 85.046875 34.121094 85.152344 34.132812 C 85.257812 34.140625 85.367188 34.132812 85.46875 34.101562 C 85.570312 34.074219 85.664062 34.023438 85.746094 33.957031 C 85.828125 33.890625 85.898438 33.808594 85.949219 33.714844 L 90.484375 25.476562 C 90.585938 25.289062 90.613281 25.066406 90.550781 24.859375 C 90.492188 24.65625 90.351562 24.480469 90.164062 24.375 C 90.117188 24.355469 90.070312 24.335938 90.023438 24.320312 Z M 90.023438 24.320312 " fill-opacity="1" fill-rule="nonzero"/></g></g></g><g clip-path="url(#24fb933acd)"><g clip-path="url(#7980e820f3)"><g clip-path="url(#737b6d09d6)"><path fill="#000000" d="M 95.914062 23.203125 C 95.84375 23.179688 95.769531 23.179688 95.699219 23.195312 L 89.691406 24.703125 C 89.628906 24.699219 89.5625 24.714844 89.503906 24.742188 C 89.441406 24.765625 89.390625 24.808594 89.351562 24.859375 C 89.308594 24.910156 89.28125 24.96875 89.265625 25.03125 C 89.25 25.097656 89.253906 25.164062 89.269531 25.226562 C 89.285156 25.289062 89.316406 25.347656 89.355469 25.398438 C 89.398438 25.445312 89.453125 25.484375 89.515625 25.511719 C 89.574219 25.535156 89.640625 25.546875 89.703125 25.542969 C 89.769531 25.539062 89.832031 25.519531 89.890625 25.484375 L 95.898438 23.980469 C 96 23.953125 96.085938 23.882812 96.140625 23.792969 C 96.195312 23.703125 96.214844 23.59375 96.191406 23.488281 C 96.175781 23.421875 96.140625 23.359375 96.089844 23.308594 C 96.042969 23.257812 95.980469 23.222656 95.914062 23.203125 Z M 95.914062 23.203125 " fill-opacity="1" fill-rule="nonzero"/></g></g></g><g clip-path="url(#fc38ede395)"><g clip-path="url(#24ab5e7e38)"><g clip-path="url(#ff2f69ce43)"><path fill="#000000" d="M 92.578125 30.136719 C 92.402344 30.078125 92.207031 30.085938 92.035156 30.152344 C 91.859375 30.222656 91.714844 30.351562 91.625 30.515625 L 87.085938 38.757812 C 86.984375 38.945312 86.960938 39.164062 87.023438 39.371094 C 87.082031 39.574219 87.222656 39.75 87.410156 39.851562 C 87.597656 39.953125 87.820312 39.976562 88.023438 39.917969 C 88.230469 39.855469 88.402344 39.71875 88.503906 39.53125 L 93.039062 31.292969 C 93.144531 31.105469 93.167969 30.882812 93.109375 30.675781 C 93.050781 30.46875 92.910156 30.292969 92.722656 30.191406 Z M 92.578125 30.136719 " fill-opacity="1" fill-rule="nonzero"/></g></g></g><g clip-path="url(#63261c6570)"><g clip-path="url(#31b01b90d2)"><g clip-path="url(#4c32812a22)"><path fill="#000000" d="M 98.472656 29.015625 C 98.402344 28.996094 98.328125 28.992188 98.257812 29.007812 L 92.246094 30.515625 C 92.179688 30.515625 92.117188 30.527344 92.054688 30.554688 C 91.996094 30.582031 91.945312 30.621094 91.902344 30.671875 C 91.863281 30.722656 91.832031 30.78125 91.820312 30.847656 C 91.804688 30.910156 91.804688 30.976562 91.820312 31.039062 C 91.835938 31.101562 91.867188 31.160156 91.910156 31.210938 C 91.953125 31.261719 92.007812 31.300781 92.066406 31.324219 C 92.128906 31.351562 92.191406 31.359375 92.257812 31.355469 C 92.324219 31.351562 92.386719 31.332031 92.441406 31.300781 L 98.453125 29.792969 C 98.554688 29.765625 98.640625 29.695312 98.695312 29.605469 C 98.75 29.515625 98.765625 29.40625 98.742188 29.304688 C 98.726562 29.234375 98.695312 29.171875 98.648438 29.125 C 98.597656 29.074219 98.539062 29.035156 98.472656 29.015625 Z M 98.472656 29.015625 " fill-opacity="1" fill-rule="nonzero"/></g></g></g><g clip-path="url(#0324c30fb8)"><g clip-path="url(#061deae385)"><g clip-path="url(#75176ecaaa)"><path fill="#000000" d="M 120.523438 22.625 C 120.707031 22.613281 120.890625 22.671875 121.039062 22.78125 C 121.191406 22.890625 121.296875 23.046875 121.34375 23.226562 L 123.699219 32.335938 C 123.734375 32.441406 123.746094 32.550781 123.738281 32.660156 C 123.726562 32.773438 123.695312 32.878906 123.640625 32.976562 C 123.585938 33.074219 123.515625 33.160156 123.425781 33.226562 C 123.339844 33.296875 123.238281 33.34375 123.132812 33.375 C 123.023438 33.402344 122.910156 33.40625 122.800781 33.390625 C 122.691406 33.371094 122.585938 33.332031 122.492188 33.273438 C 122.398438 33.214844 122.320312 33.136719 122.257812 33.042969 C 122.195312 32.953125 122.152344 32.847656 122.132812 32.738281 L 119.773438 23.632812 C 119.722656 23.425781 119.753906 23.207031 119.863281 23.019531 C 119.972656 22.835938 120.148438 22.703125 120.355469 22.648438 C 120.410156 22.632812 120.464844 22.625 120.523438 22.625 Z M 120.523438 22.625 " fill-opacity="1" fill-rule="nonzero"/></g></g></g><g clip-path="url(#cb41a84aa7)"><g clip-path="url(#70a1d9fd60)"><g clip-path="url(#835e6e7bb6)"><path fill="#000000" d="M 115.089844 20.078125 C 115.164062 20.074219 115.238281 20.09375 115.304688 20.128906 L 120.753906 23.074219 C 120.84375 23.128906 120.910156 23.214844 120.941406 23.316406 C 120.972656 23.417969 120.960938 23.527344 120.914062 23.621094 C 120.859375 23.710938 120.773438 23.777344 120.671875 23.808594 C 120.574219 23.839844 120.464844 23.832031 120.367188 23.785156 L 114.914062 20.839844 C 114.847656 20.789062 114.792969 20.722656 114.765625 20.640625 C 114.734375 20.5625 114.730469 20.476562 114.75 20.394531 C 114.769531 20.3125 114.8125 20.238281 114.875 20.183594 C 114.9375 20.125 115.015625 20.089844 115.097656 20.078125 Z M 115.089844 20.078125 " fill-opacity="1" fill-rule="nonzero"/></g></g></g><g clip-path="url(#8541f90fa8)"><g clip-path="url(#b2494280d3)"><g clip-path="url(#bc9601c49f)"><path fill="#000000" d="M 119.785156 31.488281 C 119.972656 31.519531 120.140625 31.613281 120.261719 31.753906 C 120.386719 31.894531 120.457031 32.074219 120.464844 32.261719 L 120.753906 41.664062 C 120.753906 41.769531 120.738281 41.875 120.699219 41.972656 C 120.660156 42.074219 120.605469 42.164062 120.53125 42.242188 C 120.457031 42.316406 120.371094 42.378906 120.273438 42.421875 C 120.175781 42.464844 120.074219 42.488281 119.964844 42.492188 C 119.859375 42.496094 119.753906 42.476562 119.65625 42.4375 C 119.558594 42.402344 119.464844 42.34375 119.390625 42.269531 C 119.3125 42.199219 119.25 42.109375 119.207031 42.015625 C 119.164062 41.917969 119.140625 41.8125 119.136719 41.707031 L 118.847656 32.308594 C 118.84375 32.09375 118.921875 31.886719 119.066406 31.726562 C 119.210938 31.570312 119.414062 31.480469 119.628906 31.472656 Z M 119.785156 31.488281 " fill-opacity="1" fill-rule="nonzero"/></g></g></g><g clip-path="url(#96e0c826f7)"><g clip-path="url(#6b5546eb9c)"><g clip-path="url(#34d4a0029f)"><path fill="#000000" d="M 115.050781 27.808594 C 115.121094 27.824219 115.1875 27.855469 115.242188 27.898438 L 119.910156 31.980469 C 119.984375 32.050781 120.03125 32.152344 120.039062 32.257812 C 120.046875 32.363281 120.011719 32.46875 119.945312 32.550781 C 119.871094 32.625 119.773438 32.671875 119.667969 32.679688 C 119.5625 32.683594 119.460938 32.652344 119.378906 32.585938 L 114.710938 28.511719 C 114.632812 28.4375 114.585938 28.339844 114.578125 28.234375 C 114.570312 28.128906 114.605469 28.023438 114.671875 27.941406 C 114.71875 27.886719 114.777344 27.847656 114.84375 27.824219 C 114.910156 27.800781 114.980469 27.796875 115.050781 27.808594 Z M 115.050781 27.808594 " fill-opacity="1" fill-rule="nonzero"/></g></g></g><g clip-path="url(#b8c937a6c1)"><g clip-path="url(#f9d1a708a8)"><g clip-path="url(#4e0ad5ef6d)"><path fill="#000000" d="M 114.882812 35.503906 C 115.070312 35.535156 115.238281 35.628906 115.363281 35.769531 C 115.484375 35.910156 115.558594 36.089844 115.5625 36.277344 L 115.847656 45.683594 C 115.851562 45.789062 115.832031 45.894531 115.796875 45.992188 C 115.757812 46.089844 115.699219 46.183594 115.628906 46.257812 C 115.480469 46.414062 115.277344 46.503906 115.0625 46.511719 C 114.957031 46.511719 114.851562 46.496094 114.753906 46.457031 C 114.652344 46.417969 114.5625 46.363281 114.484375 46.289062 C 114.332031 46.140625 114.238281 45.9375 114.234375 45.726562 L 113.941406 36.347656 C 113.933594 36.132812 114.011719 35.921875 114.160156 35.765625 C 114.308594 35.609375 114.511719 35.519531 114.726562 35.511719 C 114.777344 35.503906 114.832031 35.503906 114.882812 35.503906 Z M 114.882812 35.503906 " fill-opacity="1" fill-rule="nonzero"/></g></g></g><g clip-path="url(#0b1817c684)"><g clip-path="url(#e7eadf48da)"><g clip-path="url(#53740632f8)"><path fill="#000000" d="M 110.144531 31.828125 C 110.21875 31.839844 110.285156 31.871094 110.339844 31.917969 L 115.003906 35.996094 C 115.0625 36.023438 115.113281 36.066406 115.15625 36.117188 C 115.195312 36.167969 115.222656 36.226562 115.238281 36.289062 C 115.25 36.355469 115.25 36.421875 115.234375 36.484375 C 115.214844 36.546875 115.1875 36.605469 115.140625 36.65625 C 115.097656 36.703125 115.046875 36.742188 114.984375 36.765625 C 114.925781 36.792969 114.859375 36.800781 114.792969 36.796875 C 114.730469 36.792969 114.664062 36.773438 114.609375 36.738281 C 114.554688 36.703125 114.507812 36.660156 114.472656 36.601562 L 109.804688 32.527344 C 109.726562 32.457031 109.679688 32.355469 109.675781 32.25 C 109.667969 32.144531 109.703125 32.039062 109.769531 31.957031 C 109.816406 31.90625 109.875 31.863281 109.941406 31.84375 C 110.007812 31.820312 110.078125 31.816406 110.144531 31.828125 Z M 110.144531 31.828125 " fill-opacity="1" fill-rule="nonzero"/></g></g></g><g clip-path="url(#a63b58d27d)"><g clip-path="url(#0becfe82e7)"><g clip-path="url(#c01dd7f13a)"><path fill="#000000" d="M 116.246094 11.894531 L 116.121094 11.863281 C 116.046875 11.828125 115.980469 11.777344 115.925781 11.71875 C 115.871094 11.65625 115.828125 11.585938 115.800781 11.507812 C 115.773438 11.429688 115.761719 11.347656 115.769531 11.265625 C 115.773438 11.1875 115.792969 11.105469 115.828125 11.03125 L 118.949219 4.476562 C 119.027344 4.335938 119.15625 4.230469 119.308594 4.183594 C 119.460938 4.132812 119.625 4.144531 119.769531 4.214844 C 119.914062 4.28125 120.027344 4.402344 120.085938 4.554688 C 120.140625 4.703125 120.140625 4.867188 120.078125 5.015625 L 116.957031 11.574219 C 116.890625 11.699219 116.785156 11.800781 116.65625 11.855469 C 116.527344 11.914062 116.382812 11.929688 116.246094 11.894531 Z M 116.246094 11.894531 " fill-opacity="1" fill-rule="nonzero"/></g></g></g><g clip-path="url(#cfe5c85354)"><g clip-path="url(#620e1651a3)"><g clip-path="url(#591167bee9)"><path fill="#000000" d="M 111.773438 13.023438 C 111.71875 13.011719 111.671875 12.984375 111.632812 12.949219 C 111.589844 12.910156 111.5625 12.867188 111.546875 12.8125 C 111.523438 12.734375 111.53125 12.652344 111.570312 12.582031 C 111.609375 12.507812 111.671875 12.457031 111.75 12.429688 L 116.3125 11 C 116.390625 10.980469 116.472656 10.988281 116.542969 11.027344 C 116.617188 11.0625 116.671875 11.128906 116.695312 11.207031 C 116.707031 11.246094 116.710938 11.285156 116.707031 11.324219 C 116.703125 11.367188 116.691406 11.402344 116.671875 11.441406 C 116.652344 11.476562 116.625 11.507812 116.59375 11.53125 C 116.5625 11.558594 116.527344 11.578125 116.488281 11.589844 L 111.929688 13.023438 C 111.875 13.035156 111.824219 13.035156 111.773438 13.023438 Z M 111.773438 13.023438 " fill-opacity="1" fill-rule="nonzero"/></g></g></g><g clip-path="url(#c81f656a0d)"><g clip-path="url(#38436bf6d9)"><g clip-path="url(#bc4021f096)"><path stroke-linecap="round" transform="matrix(0.0678715, 0.016343, -0.0163303, 0.0678188, 92.271885, -2.435432)" fill-opacity="1" fill="#366994" fill-rule="nonzero" stroke-linejoin="round" d="M 280.089138 478.448297 C 361.178481 478.433148 426.918683 412.710811 426.916644 331.612793 C 426.914606 250.514775 361.202085 184.790953 280.099643 184.75166 C 199.010301 184.76681 133.270098 250.489147 133.272137 331.587165 C 133.274176 412.685183 198.999796 478.463447 280.089138 478.448297 Z M 280.089138 478.448297 " stroke="#263238" stroke-width="1.088" stroke-opacity="1" stroke-miterlimit="4"/></g></g></g><g clip-path="url(#b16c4d733d)"><g clip-path="url(#509aa30261)"><g clip-path="url(#56a22bda3d)"><path fill="#000000" d="M 109.734375 28.304688 L 110.984375 23.125 L 107.113281 19.453125 L 102.003906 20.960938 L 100.753906 26.140625 L 104.621094 29.8125 Z M 109.734375 28.304688 " fill-opacity="1" fill-rule="nonzero"/></g></g></g><g clip-path="url(#177bc36311)"><g clip-path="url(#475d4b92b4)"><g clip-path="url(#62270f0983)"><path stroke-linecap="round" transform="matrix(0.0678715, 0.016343, -0.0163303, 0.0678188, 92.271885, -2.435432)" fill="none" stroke-linejoin="round" d="M 346.269449 369.824312 L 346.307942 293.439592 L 280.085034 255.25559 L 213.986831 293.416979 L 213.948338 369.801698 L 280.116847 407.99881 Z M 346.269449 369.824312 " stroke="#263238" stroke-width="1.088" stroke-opacity="1" stroke-miterlimit="4"/></g></g></g><g clip-path="url(#56adb5595c)"><g clip-path="url(#57da2b146c)"><g clip-path="url(#87ecb77013)"><path stroke-linecap="butt" transform="matrix(0.0678715, 0.016343, -0.0163303, 0.0678188, 92.271885, -2.435432)" fill="none" stroke-linejoin="miter" d="M 280.085034 255.25559 L 280.086544 184.697219 " stroke="#263238" stroke-width="1.088" stroke-opacity="1" stroke-miterlimit="10"/></g></g></g><g clip-path="url(#8226f8ac0c)"><g clip-path="url(#2a10e06078)"><g clip-path="url(#195f73b37d)"><path stroke-linecap="butt" transform="matrix(0.0678715, 0.016343, -0.0163303, 0.0678188, 92.271885, -2.435432)" fill="none" stroke-linejoin="miter" d="M 280.116847 407.99881 L 280.089138 478.448297 " stroke="#263238" stroke-width="1.088" stroke-opacity="1" stroke-miterlimit="10"/></g></g></g><g clip-path="url(#9083139ca8)"><g clip-path="url(#7031506236)"><g clip-path="url(#2570fd6adb)"><path stroke-linecap="butt" transform="matrix(0.0678715, 0.016343, -0.0163303, 0.0678188, 92.271885, -2.435432)" fill="none" stroke-linejoin="miter" d="M 133.272137 331.587165 L 426.971044 331.599684 " stroke="#263238" stroke-width="1.088" stroke-opacity="1" stroke-miterlimit="10"/></g></g></g><g fill="#9d3be1" fill-opacity="1"><g transform="translate(106.989816, 65.556982)"><g><path d="M 11.46875 -40.308594 C 3.078125 -0.757812 3.035156 -0.675781 3.035156 -0.632812 C 3.035156 -0.296875 3.332031 0 3.710938 0 L 4.722656 0 C 5.1875 0 5.566406 -0.378906 5.691406 -0.800781 L 14.082031 -40.308594 L 22.429688 -40.308594 C 22.851562 -40.308594 23.316406 -40.6875 23.402344 -41.152344 C 23.570312 -42.078125 23.613281 -42.164062 23.613281 -42.207031 C 23.613281 -42.542969 23.316406 -42.839844 22.9375 -42.839844 L 3.625 -42.839844 C 3.203125 -42.839844 2.78125 -42.457031 2.65625 -42.035156 L 2.488281 -40.984375 C 2.488281 -40.601562 2.742188 -40.308594 3.121094 -40.308594 Z M 11.46875 -40.308594 "/></g></g></g><g clip-path="url(#e4b097f414)"><path stroke-linecap="butt" transform="matrix(0.135717, 0, 0, 0.135717, 86.439032, 26.930339)" fill="none" stroke-linejoin="miter" d="M 226.303444 -22.023215 C 164.479197 269.39694 164.191375 270.001367 164.191375 270.375536 C 164.191375 272.793244 166.378825 275.009477 169.113138 275.009477 L 176.625302 275.009477 C 180.050388 275.009477 182.842265 272.188817 183.763297 269.080336 L 245.558761 -22.023215 L 307.095185 -22.023215 C 310.203666 -22.023215 313.59997 -24.815092 314.204397 -28.240179 C 315.499598 -35.061569 315.816203 -35.665996 315.816203 -35.982601 C 315.816203 -38.486655 313.59997 -40.674105 310.808093 -40.674105 L 168.508711 -40.674105 C 165.400229 -40.674105 162.291747 -37.882228 161.370716 -34.773747 L 160.161862 -26.944978 C 160.161862 -24.153101 161.975143 -22.023215 164.795802 -22.023215 Z M 226.303444 -22.023215 " stroke="#000000" stroke-width="5.825062" stroke-opacity="1" stroke-miterlimit="4"/></g></svg>